<svg width="30" height="30" viewBox="0 0 30 30" fill="none" xmlns="http://www.w3.org/2000/svg">
<path d="M6.29289 6.29275C6.68344 5.90251 7.31653 5.90232 7.70696 6.29275L14.7802 13.367L21.8486 6.29959C22.239 5.90925 22.8721 5.90945 23.2626 6.29959C23.6531 6.69011 23.6531 7.3241 23.2626 7.71463L16.1952 14.781L23.2626 21.8494C23.6531 22.2399 23.6531 22.8729 23.2626 23.2635C22.8721 23.6538 22.239 23.6539 21.8486 23.2635L14.7812 16.1951L7.70696 23.2703C7.31647 23.6608 6.68343 23.6607 6.29289 23.2703C5.90237 22.8798 5.90237 22.2468 6.29289 21.8562L13.3671 14.781L6.29289 7.70681C5.90237 7.31629 5.90237 6.68327 6.29289 6.29275Z" fill="#1A1A1A"/>
</svg>
